<svg data-v-5f19e91b="" xmlns="http://www.w3.org/2000/svg" width="331" height="90" viewBox="0 0 331 90"><!----> <!----> <!----> <g data-v-5f19e91b="" id="acc419af-070d-f5f6-bfa9-04eba52387e5" fill="black" transform="matrix(5.016722392025688,0,0,5.016722392025688,89.49044569943744,8.979932651934632)"><path d="M5.05 9.83L5.78 3.85L6.51 3.85L5.71 10.50L4.23 10.50L3.51 7.60L3.46 7.60L2.73 10.50L1.26 10.50L0.49 3.85L1.22 3.85L1.95 9.83L2.20 9.83L3.14 6.45L3.86 6.45L4.80 9.83L5.05 9.83ZM12.95 10.50L12.24 10.50L12.21 9.93L12.21 9.93Q10.86 10.63 9.97 10.63L9.97 10.63L9.97 10.63Q9.07 10.63 8.55 10.01L8.55 10.01L8.55 10.01Q8.04 9.39 8.04 8.33L8.04 8.33L8.04 3.85L8.78 3.85L8.78 8.33L8.78 8.33Q8.78 9.02 9.11 9.46L9.11 9.46L9.11 9.46Q9.44 9.90 10.11 9.90L10.11 9.90L10.11 9.90Q10.78 9.90 12.21 9.20L12.21 9.20L12.21 3.85L12.95 3.85L12.95 10.50ZM19.28 3.85L19.99 3.85L19.99 13.16L19.25 13.16L19.25 9.91L19.25 9.91Q18.23 10.63 17.35 10.63L17.35 10.63L17.35 10.63Q16.10 10.63 15.41 9.70L15.41 9.70L15.41 9.70Q14.73 8.78 14.73 7.18L14.73 7.18L14.73 7.18Q14.73 5.59 15.48 4.68L15.48 4.68L15.48 4.68Q16.24 3.77 17.58 3.77L17.58 3.77L17.58 3.77Q18.33 3.77 19.25 4.26L19.25 4.26L19.28 3.85ZM15.53 7.17L15.53 7.17L15.53 7.17Q15.53 8.41 16.01 9.16L16.01 9.16L16.01 9.16Q16.49 9.90 17.39 9.90L17.39 9.90L17.39 9.90Q18.30 9.90 19.25 9.10L19.25 9.10L19.25 5.04L19.25 5.04Q18.38 4.49 17.61 4.49L17.61 4.49L17.61 4.49Q16.62 4.49 16.07 5.21L16.07 5.21L16.07 5.21Q15.53 5.94 15.53 7.17ZM24.35 4.55L22.72 4.55L22.72 3.85L25.09 3.85L25.09 9.80L26.71 9.80L26.71 10.50L22.61 10.50L22.61 9.80L24.35 9.80L24.35 4.55ZM24.65 2.51L24.65 2.51L24.65 2.51Q24.40 2.51 24.23 2.33L24.23 2.33L24.23 2.33Q24.05 2.16 24.05 1.88L24.05 1.88L24.05 1.88Q24.05 1.61 24.23 1.45L24.23 1.45L24.23 1.45Q24.40 1.29 24.65 1.29L24.65 1.29L24.65 1.29Q24.91 1.29 25.07 1.44L25.07 1.44L25.07 1.44Q25.23 1.60 25.23 1.88L25.23 1.88L25.23 1.88Q25.23 2.16 25.07 2.33L25.07 2.33L25.07 2.33Q24.91 2.51 24.65 2.51ZM29.83 5.07L29.83 5.07L29.83 10.50L29.09 10.50L29.09 1.20L29.83 1.20L29.83 4.35L29.83 4.35Q31.15 3.77 32.00 3.77L32.00 3.77L32.00 3.77Q34.01 3.77 34.01 6.06L34.01 6.06L34.01 10.50L33.26 10.50L33.26 6.06L33.26 6.06Q33.26 5.35 32.96 4.92L32.96 4.92L32.96 4.92Q32.65 4.49 31.89 4.49L31.89 4.49L31.89 4.49Q31.14 4.49 29.83 5.07ZM38.05 9.90L38.05 9.90L38.05 9.90Q38.57 9.90 39.18 9.57L39.18 9.57L39.18 9.57Q39.79 9.24 40.07 8.96L40.07 8.96L40.07 7.29L40.07 7.29Q39.14 7.22 38.30 7.22L38.30 7.22L38.30 7.22Q37.46 7.22 37.04 7.58L37.04 7.58L37.04 7.58Q36.62 7.94 36.62 8.54L36.62 8.54L36.62 8.54Q36.62 9.90 38.05 9.90ZM38.04 10.63L38.04 10.63L38.04 10.63Q37.02 10.63 36.43 10.10L36.43 10.10L36.43 10.10Q35.84 9.58 35.84 8.61L35.84 8.61L35.84 8.61Q35.84 7.64 36.48 7.11L36.48 7.11L36.48 7.11Q37.13 6.57 38.19 6.57L38.19 6.57L38.19 6.57Q39.26 6.57 40.07 6.65L40.07 6.65L40.07 6.65Q40.07 5.40 39.76 4.95L39.76 4.95L39.76 4.95Q39.45 4.49 38.51 4.49L38.51 4.49L38.51 4.49Q37.58 4.49 36.30 4.94L36.30 4.94L36.09 4.24L36.09 4.24Q37.39 3.77 38.44 3.77L38.44 3.77L38.44 3.77Q39.83 3.77 40.32 4.38L40.32 4.38L40.32 4.38Q40.81 5.00 40.81 6.54L40.81 6.54L40.81 9.48L40.92 10.54L40.21 10.61L40.07 9.77L40.07 9.77Q39.75 10.05 39.16 10.34L39.16 10.34L39.16 10.34Q38.57 10.63 38.04 10.63ZM43.06 3.85L43.78 3.85L43.81 4.41L43.81 4.41Q45.16 3.77 46.06 3.77L46.06 3.77L46.06 3.77Q46.96 3.77 47.47 4.38L47.47 4.38L47.47 4.38Q47.98 5.00 47.98 6.06L47.98 6.06L47.98 10.50L47.24 10.50L47.24 6.06L47.24 6.06Q47.24 5.38 46.90 4.93L46.90 4.93L46.90 4.93Q46.56 4.49 45.89 4.49L45.89 4.49L45.89 4.49Q45.22 4.49 43.81 5.11L43.81 5.11L43.81 10.50L43.06 10.50L43.06 3.85Z"></path></g> <!----> <g data-v-5f19e91b="" id="23eb7fba-07de-51d5-7a55-c5f381d92111" transform="matrix(0.9894753829783272,0,0,0.9894753829783272,-12.830732838688093,-3.955554546814078)" stroke="none" fill="black"><path d="M71.683,64.62c-8.67-2.064-4.317-11.069-4.317-11.069c-4.972-7.717,3.509-9.701,3.509-9.701  c-0.933-7.957,6.605-7.019,6.605-7.019c4.642-5.066,8.877,0,8.877,0l-0.268-0.407c0.946-0.395-12.268-26.439-33.912-18.051  c-0.161,0.062-0.317,0.114-0.473,0.166c-6.812-7.239,5.903-11.72,5.903-11.72l-2.226-2.596c-8.933,2.808-8.942,10.158-8.079,14.47  c-3.499-0.885-6.551-3.47-15.048,0.609c0,0-23.172,10.033-17.804,43.162c4.821,29.747,44.082,43.555,62.953,22.771  c0,0,7.417-7.863,8.952-14.889C74.985,78.656,71.683,64.62,71.683,64.62z"></path></g></svg>