<svg data-v-5f19e91b="" xmlns="http://www.w3.org/2000/svg" width="390" height="90" viewBox="0 0 390 90"><!----> <!----> <!----> <g data-v-5f19e91b="" id="678787c7-c334-69a2-3865-126eb5d04c32" fill="black" transform="matrix(3,0,0,3,90.68864834308624,12.509998083114624)"><path d="M8.62 1.02L8.62 1.02Q8.78 1.02 8.86 1.17L8.86 1.17L8.86 1.17Q8.93 1.32 8.95 1.47L8.95 1.47L8.95 1.47Q8.95 1.81 8.81 2.09L8.81 2.09L8.81 2.09Q8.64 2.49 8.34 2.80L8.34 2.80L8.34 2.80Q8.04 3.11 7.66 3.15L7.66 3.15L7.66 3.15Q6.96 3.25 6.68 3.29L6.68 3.29L6.68 3.29Q6.99 4.14 7.11 4.94L7.11 4.94L7.11 4.94Q7.28 5.88 7.29 6.17L7.29 6.17L7.29 6.17Q7.32 6.57 7.32 6.78L7.32 6.78L7.32 6.78Q7.32 6.97 7.29 7.39L7.29 7.39L7.29 7.39Q7.21 8.95 6.96 9.86L6.96 9.86L6.96 9.86Q6.75 10.61 6.52 11.05L6.52 11.05L6.52 11.05Q6.33 11.47 6.16 11.74L6.16 11.74L6.16 11.74Q5.99 12.01 5.77 12.22L5.77 12.22L5.38 12.59L5.11 12.74L5.11 12.74Q4.94 12.87 4.72 12.87L4.72 12.87L4.72 12.87Q4.63 12.89 4.58 12.89L4.58 12.89L4.58 12.89Q4.03 12.87 3.57 12.64L3.57 12.64L3.57 12.64Q3.21 12.45 2.88 12.19L2.88 12.19L2.88 12.19Q2.56 11.93 2.10 11.51L2.10 11.51L0.60 10.16L0.60 10.16Q0.42 10.00 0.42 9.70L0.42 9.70L0.42 9.70Q0.42 9.30 0.76 8.78L0.76 8.78L0.76 8.78Q1.11 8.25 1.51 8.08L1.51 8.08L1.51 8.08Q1.62 8.02 1.74 8.02L1.74 8.02L1.74 8.02Q1.86 8.02 1.96 8.08L1.96 8.08L3.05 9.11L3.39 9.42L3.39 9.42Q3.92 9.91 4.30 10.21L4.30 10.21L4.30 10.21Q4.69 10.50 5.14 10.67L5.14 10.67L5.14 10.67Q5.17 10.68 5.22 10.68L5.22 10.68L5.22 10.68Q5.31 10.49 5.33 10.37L5.33 10.37L5.33 10.37Q5.49 9.87 5.63 8.83L5.63 8.83L5.63 8.83Q5.70 8.16 5.70 7.62L5.70 7.62L5.70 7.62Q5.70 7.29 5.68 7.14L5.68 7.14L5.66 6.85L5.66 6.85Q5.57 5.98 5.49 5.53L5.49 5.53L5.49 5.53Q5.29 4.61 4.90 3.88L4.90 3.88L4.90 3.88Q4.84 3.78 4.84 3.61L4.84 3.61L4.65 3.64L4.65 3.64Q3.42 3.95 2.80 4.12L2.80 4.12L2.80 4.12Q2.76 4.13 2.71 4.14L2.71 4.14L2.71 4.14Q2.66 4.16 2.59 4.16L2.59 4.16L2.59 4.16Q2.41 4.16 2.31 3.98L2.31 3.98L2.31 3.98Q2.27 3.85 2.27 3.72L2.27 3.72L2.27 3.72Q2.27 3.65 2.30 3.51L2.30 3.51L2.30 3.51Q2.38 3.07 2.74 2.67L2.74 2.67L2.74 2.67Q2.94 2.46 3.19 2.35L3.19 2.35L3.19 2.35Q4.09 2.10 4.54 1.96L4.54 1.96L4.54 1.96Q4.84 1.86 4.94 1.85L4.94 1.85L4.94 1.85Q5.45 1.69 5.75 1.62L5.75 1.62L5.75 1.62Q7.17 1.30 8.57 1.04L8.57 1.04L8.62 1.02ZM13.62 5.10L13.62 5.10Q13.64 4.82 14.02 4.60L14.02 4.60L14.02 4.60Q14.41 4.38 14.80 4.38L14.80 4.38L14.80 4.38Q15.02 4.38 15.16 4.47L15.16 4.47L15.16 4.47Q15.30 4.56 15.29 4.76L15.29 4.76L15.29 4.76Q15.26 5.29 15.26 5.61L15.26 5.61L15.26 5.61Q15.19 7.43 15.02 8.71L15.02 8.71L15.02 8.71Q14.84 9.98 14.24 11.10L14.24 11.10L14.24 11.10Q13.64 12.22 12.45 12.57L12.45 12.57L12.45 12.57Q12.04 12.68 11.68 12.68L11.68 12.68L11.68 12.68Q10.78 12.68 10.10 12.15L10.10 12.15L10.10 12.15Q9.42 11.62 9.32 10.71L9.32 10.71L9.32 10.71Q9.30 10.35 9.30 10.16L9.30 10.16L9.30 10.16Q9.30 9.20 9.59 8.19L9.59 8.19L9.59 8.19Q9.88 7.18 10.44 5.75L10.44 5.75L10.44 5.75Q10.61 5.38 10.82 4.79L10.82 4.79L10.82 4.79Q10.91 4.55 11.25 4.39L11.25 4.39L11.25 4.39Q11.59 4.23 11.93 4.23L11.93 4.23L11.93 4.23Q12.15 4.23 12.29 4.32L12.29 4.32L12.29 4.32Q12.43 4.41 12.43 4.58L12.43 4.58L12.43 4.58Q12.43 4.63 12.40 4.75L12.40 4.75L12.40 4.75Q12.12 5.56 11.97 5.96L11.97 5.96L11.97 5.96Q11.56 7.10 11.34 7.86L11.34 7.86L11.34 7.86Q11.12 8.62 11.03 9.42L11.03 9.42L11.03 9.42Q11.00 9.76 11.00 9.95L11.00 9.95L11.00 9.95Q11.00 10.78 11.41 11.14L11.41 11.14L11.41 11.14Q11.54 11.27 11.75 11.38L11.75 11.38L11.75 11.38Q11.96 11.48 12.14 11.49L12.14 11.49L12.25 11.52L12.25 11.52Q12.26 11.52 12.31 11.48L12.31 11.48L12.31 11.48Q12.66 11.26 12.87 10.72L12.87 10.72L12.87 10.72Q13.09 10.18 13.16 9.76L13.16 9.76L13.16 9.76Q13.23 9.34 13.36 8.43L13.36 8.43L13.36 8.43Q13.45 7.69 13.52 6.80L13.52 6.80L13.52 6.80Q13.58 5.92 13.62 5.10L13.62 5.10ZM21.07 6.51L21.07 6.51Q20.80 6.29 20.15 5.92L20.15 5.92L20.15 5.92Q19.50 5.54 19.15 5.54L19.15 5.54L19.15 5.54Q18.87 5.54 18.87 5.82L18.87 5.82L18.87 5.82Q18.87 5.92 18.94 6.16L18.94 6.16L18.94 6.16Q19.04 6.48 19.38 6.77L19.38 6.77L19.38 6.77Q19.71 7.06 20.26 7.43L20.26 7.43L20.26 7.43Q20.71 7.74 20.83 7.85L20.83 7.85L20.83 7.85Q21.45 8.39 21.81 8.74L21.81 8.74L21.81 8.74Q22.18 9.10 22.48 9.58L22.48 9.58L22.48 9.58Q22.78 10.07 22.78 10.57L22.78 10.57L22.78 10.57Q22.78 10.91 22.61 11.27L22.61 11.27L22.61 11.27Q22.29 11.93 21.55 12.28L21.55 12.28L21.55 12.28Q20.82 12.63 19.99 12.63L19.99 12.63L19.99 12.63Q19.71 12.63 19.43 12.59L19.43 12.59L19.43 12.59Q17.53 12.26 15.92 10.05L15.92 10.05L15.92 10.05Q15.83 9.93 15.83 9.80L15.83 9.80L15.83 9.80Q15.83 9.49 16.25 9.23L16.25 9.23L16.25 9.23Q16.66 8.97 17.07 8.97L17.07 8.97L17.07 8.97Q17.37 8.97 17.51 9.16L17.51 9.16L17.51 9.16Q18.38 10.33 19.22 10.88L19.22 10.88L19.22 10.88Q19.99 11.38 20.52 11.38L20.52 11.38L20.52 11.38Q20.96 11.38 20.96 11.00L20.96 11.00L20.96 11.00Q20.96 10.74 20.75 10.35L20.75 10.35L20.75 10.35Q20.54 9.97 20.20 9.63L20.20 9.63L20.20 9.63Q19.87 9.30 19.35 8.86L19.35 8.86L18.97 8.54L18.97 8.54Q18.91 8.48 18.45 8.13L18.45 8.13L18.45 8.13Q18.07 7.85 17.81 7.62L17.81 7.62L17.81 7.62Q17.54 7.38 17.36 7.10L17.36 7.10L17.36 7.10Q17.12 6.72 17.12 6.31L17.12 6.31L17.12 6.31Q17.12 5.68 17.66 5.16L17.66 5.16L17.66 5.16Q18.20 4.63 18.90 4.44L18.90 4.44L18.90 4.44Q19.35 4.31 19.75 4.31L19.75 4.31L19.75 4.31Q20.51 4.31 21.22 4.66L21.22 4.66L21.22 4.66Q21.92 5.01 22.65 5.63L22.65 5.63L22.65 5.63Q22.78 5.73 22.78 5.87L22.78 5.87L22.78 5.87Q22.78 6.13 22.34 6.38L22.34 6.38L22.34 6.38Q21.91 6.64 21.49 6.64L21.49 6.64L21.49 6.64Q21.21 6.64 21.07 6.51L21.07 6.51ZM27.52 4.28L27.52 4.28Q27.82 4.26 27.98 4.35L27.98 4.35L27.98 4.35Q28.14 4.45 28.32 4.73L28.32 4.73L28.32 4.73Q28.43 4.91 28.43 5.04L28.43 5.04L28.43 5.04Q28.43 5.35 28.04 5.40L28.04 5.40L27.55 5.46L27.55 5.46Q26.87 5.56 26.82 5.56L26.82 5.56L26.82 5.56Q26.59 7.80 26.45 9.45L26.45 9.45L26.45 9.45Q26.31 11.10 26.26 12.71L26.26 12.71L26.26 12.71Q26.25 12.91 26.10 13.01L26.10 13.01L26.10 13.01Q25.96 13.10 25.72 13.10L25.72 13.10L25.72 13.10Q25.30 13.10 24.89 12.87L24.89 12.87L24.89 12.87Q24.47 12.64 24.49 12.35L24.49 12.35L24.49 12.35Q24.53 10.86 24.65 9.32L24.65 9.32L24.65 9.32Q24.78 7.77 24.99 5.73L24.99 5.73L24.11 5.84L24.11 5.84Q23.91 5.85 23.81 5.82L23.81 5.82L23.81 5.82Q23.70 5.78 23.60 5.66L23.60 5.66L23.60 5.66Q23.51 5.53 23.41 5.38L23.41 5.38L23.41 5.38Q23.30 5.22 23.30 5.07L23.30 5.07L23.30 5.07Q23.30 4.94 23.39 4.84L23.39 4.84L23.39 4.84Q23.49 4.75 23.69 4.72L23.69 4.72L23.69 4.72Q24.00 4.68 24.40 4.62L24.40 4.62L25.12 4.52L25.37 2.10L25.37 2.10Q25.41 1.71 25.94 1.71L25.94 1.71L25.94 1.71Q26.36 1.71 26.76 1.94L26.76 1.94L26.76 1.94Q27.16 2.17 27.13 2.46L27.13 2.46L26.95 4.34L26.95 4.34Q27.34 4.31 27.52 4.28L27.52 4.28ZM35.94 7.41L35.56 8.37L35.45 8.65L36.43 9.48L36.33 9.07L36.33 9.07Q36.23 8.68 35.94 7.41L35.94 7.41ZM37.16 4.28L37.16 4.28Q37.35 5.50 37.65 6.75L37.65 6.75L37.65 6.75Q37.95 8.01 38.39 9.63L38.39 9.63L38.39 9.63Q38.79 11.17 38.92 11.68L38.92 11.68L38.92 11.68Q38.93 11.72 38.93 11.80L38.93 11.80L38.93 11.80Q38.93 12.14 38.56 12.38L38.56 12.38L38.56 12.38Q38.18 12.63 37.77 12.63L37.77 12.63L37.77 12.63Q37.44 12.63 37.25 12.45L37.25 12.45L37.25 12.45Q36.85 12.01 36.40 11.62L36.40 11.62L36.40 11.62Q35.95 11.23 35.22 10.65L35.22 10.65L34.76 10.28L34.76 10.28Q34.17 11.54 33.85 12.14L33.85 12.14L33.85 12.14Q33.75 12.35 33.34 12.52L33.34 12.52L33.34 12.52Q32.93 12.70 32.58 12.70L32.58 12.70L32.58 12.70Q32.19 12.70 32.19 12.45L32.19 12.45L32.19 12.45Q32.19 12.38 32.23 12.28L32.23 12.28L32.23 12.28Q32.65 11.24 33.22 9.90L33.22 9.90L33.52 9.18L33.52 9.18Q33.17 8.83 33.17 8.83L33.17 8.83L33.17 8.83Q33.07 8.74 33.07 8.61L33.07 8.61L33.07 8.61Q33.07 8.37 33.38 8.16L33.38 8.16L33.38 8.16Q33.68 7.94 34.06 7.87L34.06 7.87L34.06 7.87Q34.73 6.26 35.32 4.59L35.32 4.59L35.32 4.59Q35.38 4.40 35.68 4.25L35.68 4.25L35.68 4.25Q35.98 4.10 36.32 4.06L36.32 4.06L36.32 4.06Q36.55 3.99 36.72 3.99L36.72 3.99L36.72 3.99Q37.11 3.99 37.16 4.28L37.16 4.28ZM45.58 10.21L45.58 10.21Q47.05 9.07 47.89 7.80L47.89 7.80L47.89 7.80Q46.77 7.46 45.64 6.44L45.64 6.44L45.64 6.44Q45.61 7.71 45.58 10.21L45.58 10.21ZM49.63 7.03L49.63 7.03Q49.73 7.10 49.73 7.21L49.73 7.21L49.73 7.21Q49.73 7.31 49.67 7.41L49.67 7.41L49.67 7.41Q48.93 8.83 47.71 9.94L47.71 9.94L47.71 9.94Q46.49 11.05 44.76 12.15L44.76 12.15L44.76 12.15Q44.59 12.25 44.38 12.33L44.38 12.33L44.38 12.33Q44.17 12.40 43.97 12.40L43.97 12.40L43.97 12.40Q43.76 12.40 43.61 12.29L43.61 12.29L43.61 12.29Q43.44 12.17 43.44 11.98L43.44 11.98L43.44 11.98Q43.44 11.75 43.71 11.56L43.71 11.56L43.71 11.56Q43.74 11.55 43.76 11.52L43.76 11.52L43.76 11.52Q43.79 11.49 43.85 11.47L43.85 11.47L43.90 7.99L43.90 7.99Q43.93 6.86 43.96 4.54L43.96 4.54L43.96 4.54Q43.95 4.51 43.95 4.44L43.95 4.44L43.95 4.44Q43.95 4.41 43.97 4.30L43.97 4.30L43.97 4.14L43.97 4.14Q43.99 3.88 44.34 3.69L44.34 3.69L44.34 3.69Q44.69 3.50 45.08 3.50L45.08 3.50L45.08 3.50Q45.35 3.50 45.51 3.60L45.51 3.60L45.51 3.60Q45.67 3.70 45.67 3.91L45.67 3.91L45.67 4.05L45.67 4.05Q47.36 6.38 49.36 6.90L49.36 6.90L49.36 6.90Q49.57 6.97 49.63 7.03L49.63 7.03ZM55.90 11.14L55.90 11.14Q56.11 11.21 56.11 11.40L56.11 11.40L56.11 11.40Q56.11 11.62 55.85 11.89L55.85 11.89L55.85 11.89Q55.55 12.18 55.09 12.18L55.09 12.18L55.09 12.18Q54.87 12.18 54.71 12.12L54.71 12.12L54.71 12.12Q53.97 11.89 53.37 11.89L53.37 11.89L53.37 11.89Q52.32 11.89 51.23 12.56L51.23 12.56L51.23 12.56Q51.04 12.68 50.79 12.76L50.79 12.76L50.79 12.76Q50.53 12.84 50.30 12.84L50.30 12.84L50.30 12.84Q50.09 12.84 49.97 12.76L49.97 12.76L49.97 12.76Q49.84 12.68 49.84 12.52L49.84 12.52L49.84 12.52Q49.84 12.42 49.87 12.35L49.87 12.35L49.87 12.35Q50.27 11.21 50.52 10.30L50.52 10.30L50.52 10.30Q50.76 9.39 50.85 8.46L50.85 8.46L50.85 8.46Q50.97 7.20 50.97 6.61L50.97 6.61L50.97 6.61Q50.97 5.05 50.37 4.23L50.37 4.23L50.37 4.23Q50.30 4.14 50.30 4.00L50.30 4.00L50.30 4.00Q50.30 3.72 50.69 3.48L50.69 3.48L50.69 3.48Q51.09 3.23 51.46 3.23L51.46 3.23L51.46 3.23Q51.72 3.23 51.83 3.35L51.83 3.35L51.83 3.35Q52.01 3.42 52.07 3.57L52.07 3.57L52.07 3.57Q52.42 4.49 53.03 5.13L53.03 5.13L53.03 5.13Q53.65 5.77 54.49 5.77L54.49 5.77L54.49 5.77Q54.64 5.77 54.95 5.71L54.95 5.71L54.95 5.71Q55.15 5.68 55.20 5.68L55.20 5.68L55.20 5.68Q55.44 5.68 55.56 5.79L55.56 5.79L55.56 5.79Q55.68 5.89 55.68 6.08L55.68 6.08L55.68 6.08Q55.68 6.27 55.52 6.47L55.52 6.47L55.52 6.47Q55.36 6.66 55.09 6.75L55.09 6.75L55.09 6.75Q54.52 6.94 53.94 6.94L53.94 6.94L53.94 6.94Q53.26 6.94 52.63 6.66L52.63 6.66L52.63 6.66Q52.60 7.45 52.56 7.84L52.56 7.84L52.46 8.72L52.46 8.72Q53.00 8.62 53.55 8.55L53.55 8.55L53.75 8.54L53.75 8.54Q54.31 8.54 54.31 8.92L54.31 8.92L54.31 8.92Q54.31 9.17 54.03 9.37L54.03 9.37L54.03 9.37Q53.75 9.56 53.45 9.62L53.45 9.62L53.45 9.62Q53.02 9.70 52.26 9.80L52.26 9.80L52.26 9.80Q52.11 10.49 51.93 11.09L51.93 11.09L51.93 11.09Q52.85 10.75 53.80 10.75L53.80 10.75L53.80 10.75Q54.85 10.75 55.90 11.14L55.90 11.14ZM62.20 3.65L62.20 3.65Q62.36 3.54 62.58 3.46L62.58 3.46L62.58 3.46Q62.80 3.37 63.00 3.37L63.00 3.37L63.00 3.37Q63.15 3.37 63.28 3.46L63.28 3.46L63.28 3.46Q63.45 3.57 63.45 3.77L63.45 3.77L63.45 3.77Q63.45 4.00 63.22 4.20L63.22 4.20L63.22 4.20Q62.54 4.80 62.11 5.68L62.11 5.68L62.11 5.68Q61.68 6.55 61.26 7.81L61.26 7.81L61.26 7.81Q60.72 9.48 59.98 12.31L59.98 12.31L59.98 12.31Q59.91 12.54 59.50 12.80L59.50 12.80L59.50 12.80Q59.09 13.06 58.74 13.06L58.74 13.06L58.74 13.06Q58.44 13.06 58.34 12.80L58.34 12.80L58.34 12.80Q57.04 9.09 56.95 4.68L56.95 4.68L56.95 4.68Q56.94 4.38 57.38 4.12L57.38 4.12L57.38 4.12Q57.82 3.85 58.21 3.85L58.21 3.85L58.21 3.85Q58.62 3.85 58.62 4.16L58.62 4.16L58.62 4.16Q58.62 6.75 59.19 9.28L59.19 9.28L59.19 9.28Q59.56 8.05 59.89 7.18L59.89 7.18L59.89 7.18Q60.35 5.94 60.87 5.06L60.87 5.06L60.87 5.06Q61.39 4.19 62.20 3.65L62.20 3.65ZM68.92 11.14L68.92 11.14Q69.13 11.21 69.13 11.40L69.13 11.40L69.13 11.40Q69.13 11.62 68.87 11.89L68.87 11.89L68.87 11.89Q68.57 12.18 68.11 12.18L68.11 12.18L68.11 12.18Q67.89 12.18 67.73 12.12L67.73 12.12L67.73 12.12Q66.99 11.89 66.39 11.89L66.39 11.89L66.39 11.89Q65.34 11.89 64.25 12.56L64.25 12.56L64.25 12.56Q64.06 12.68 63.81 12.76L63.81 12.76L63.81 12.76Q63.55 12.84 63.32 12.84L63.32 12.84L63.32 12.84Q63.11 12.84 62.99 12.76L62.99 12.76L62.99 12.76Q62.86 12.68 62.86 12.52L62.86 12.52L62.86 12.52Q62.86 12.42 62.89 12.35L62.89 12.35L62.89 12.35Q63.29 11.21 63.54 10.30L63.54 10.30L63.54 10.30Q63.78 9.39 63.87 8.46L63.87 8.46L63.87 8.46Q63.99 7.20 63.99 6.61L63.99 6.61L63.99 6.61Q63.99 5.05 63.39 4.23L63.39 4.23L63.39 4.23Q63.32 4.14 63.32 4.00L63.32 4.00L63.32 4.00Q63.32 3.72 63.71 3.48L63.71 3.48L63.71 3.48Q64.11 3.23 64.48 3.23L64.48 3.23L64.48 3.23Q64.74 3.23 64.85 3.35L64.85 3.35L64.85 3.35Q65.03 3.42 65.09 3.57L65.09 3.57L65.09 3.57Q65.44 4.49 66.05 5.13L66.05 5.13L66.05 5.13Q66.67 5.77 67.51 5.77L67.51 5.77L67.51 5.77Q67.66 5.77 67.97 5.71L67.97 5.71L67.97 5.71Q68.17 5.68 68.22 5.68L68.22 5.68L68.22 5.68Q68.46 5.68 68.58 5.79L68.58 5.79L68.58 5.79Q68.70 5.89 68.70 6.08L68.70 6.08L68.70 6.08Q68.70 6.27 68.54 6.47L68.54 6.47L68.54 6.47Q68.38 6.66 68.11 6.75L68.11 6.75L68.11 6.75Q67.54 6.94 66.96 6.94L66.96 6.94L66.96 6.94Q66.28 6.94 65.65 6.66L65.65 6.66L65.65 6.66Q65.62 7.45 65.58 7.84L65.58 7.84L65.48 8.72L65.48 8.72Q66.02 8.62 66.57 8.55L66.57 8.55L66.77 8.54L66.77 8.54Q67.33 8.54 67.33 8.92L67.33 8.92L67.33 8.92Q67.33 9.17 67.05 9.37L67.05 9.37L67.05 9.37Q66.77 9.56 66.47 9.62L66.47 9.62L66.47 9.62Q66.04 9.70 65.28 9.80L65.28 9.80L65.28 9.80Q65.13 10.49 64.95 11.09L64.95 11.09L64.95 11.09Q65.87 10.75 66.82 10.75L66.82 10.75L66.82 10.75Q67.87 10.75 68.92 11.14L68.92 11.14ZM71.20 1.53L71.20 1.53Q71.23 1.26 71.65 1.04L71.65 1.04L71.65 1.04Q72.07 0.83 72.45 0.83L72.45 0.83L72.45 0.83Q72.90 0.83 72.88 1.16L72.88 1.16L72.88 1.16Q72.66 3.67 72.14 8.08L72.14 8.08L72.14 8.08Q71.81 11.09 71.71 11.98L71.71 11.98L71.71 11.98Q71.68 12.28 71.27 12.51L71.27 12.51L71.27 12.51Q70.85 12.74 70.46 12.74L70.46 12.74L70.46 12.74Q69.92 12.74 69.96 12.33L69.96 12.33L69.96 12.33Q70.45 7.52 71.20 1.53L71.20 1.53ZM77.27 9.63L77.27 9.63Q77.59 8.88 77.59 8.08L77.59 8.08L77.59 8.08Q77.59 7.45 77.37 6.92L77.37 6.92L77.37 6.92Q77.15 6.40 76.69 6.06L76.69 6.06L76.69 6.06Q76.38 5.84 76.10 5.84L76.10 5.84L76.10 5.84Q75.99 5.84 75.82 5.89L75.82 5.89L75.82 5.89Q75.95 5.95 75.95 6.09L75.95 6.09L75.95 6.09Q75.95 6.17 75.89 6.29L75.89 6.29L75.89 6.29Q75.57 6.90 75.39 7.62L75.39 7.62L75.39 7.62Q75.21 8.34 75.21 9.07L75.21 9.07L75.21 9.07Q75.21 9.91 75.46 10.67L75.46 10.67L75.46 10.67Q75.63 11.09 75.81 11.33L75.81 11.33L75.81 11.33Q75.89 11.42 75.98 11.47L75.98 11.47L75.98 11.47Q76.38 11.19 76.71 10.68L76.71 10.68L76.71 10.68Q77.04 10.18 77.27 9.63L77.27 9.63ZM77.07 4.72L77.07 4.72Q77.76 4.86 78.25 5.32L78.25 5.32L78.25 5.32Q78.74 5.78 78.99 6.43L78.99 6.43L78.99 6.43Q79.24 7.08 79.24 7.78L79.24 7.78L79.24 7.78Q79.24 8.61 78.92 9.48L78.92 9.48L78.92 9.48Q78.60 10.35 78.04 11.07L78.04 11.07L78.04 11.07Q77.48 11.80 76.79 12.22L76.79 12.22L76.79 12.22Q76.15 12.61 75.53 12.61L75.53 12.61L75.53 12.61Q74.91 12.61 74.45 12.24L74.45 12.24L74.45 12.24Q73.99 11.86 73.78 11.14L73.78 11.14L73.78 11.14Q73.54 10.42 73.54 9.51L73.54 9.51L73.54 9.51Q73.54 8.96 73.63 8.44L73.63 8.44L73.63 8.44Q73.53 8.47 73.33 8.47L73.33 8.47L73.33 8.47Q72.86 8.47 72.86 8.15L72.86 8.15L72.86 8.15Q72.86 8.04 72.88 7.97L72.88 7.97L72.88 7.97Q73.36 6.64 74.32 5.65L74.32 5.65L74.32 5.65Q75.28 4.66 76.52 4.66L76.52 4.66L76.52 4.66Q76.71 4.66 77.07 4.72L77.07 4.72ZM83.92 8.60L83.92 8.60Q84.13 8.06 84.13 7.57L84.13 7.57L84.13 7.57Q84.13 6.93 83.76 6.52L83.76 6.52L83.76 6.52Q83.22 5.88 81.93 5.91L81.93 5.91L81.93 5.91Q81.68 8.12 81.54 11.24L81.54 11.24L81.54 11.24Q82.33 10.82 82.96 10.13L82.96 10.13L82.96 10.13Q83.59 9.44 83.92 8.60L83.92 8.60ZM82.07 4.82L82.07 4.82Q82.22 4.80 82.54 4.80L82.54 4.80L82.54 4.80Q84.25 4.80 85.09 5.64L85.09 5.64L85.09 5.64Q85.72 6.26 85.72 7.22L85.72 7.22L85.72 7.22Q85.72 7.73 85.50 8.43L85.50 8.43L85.50 8.43Q85.04 9.74 83.96 10.79L83.96 10.79L83.96 10.79Q82.88 11.83 81.49 12.38L81.49 12.38L81.49 12.38Q81.44 13.80 81.41 14.88L81.41 14.88L81.41 14.88Q81.38 15.95 81.37 16.66L81.37 16.66L81.37 16.66Q81.35 18.37 81.28 20.09L81.28 20.09L81.28 20.09Q81.27 20.38 80.86 20.61L80.86 20.61L80.86 20.61Q80.46 20.83 80.04 20.83L80.04 20.83L80.04 20.83Q79.55 20.83 79.55 20.47L79.55 20.47L79.56 19.35L79.56 19.35Q79.58 18.80 79.61 16.72L79.61 16.72L79.61 16.72Q79.65 14.63 79.73 12.82L79.73 12.82L79.73 12.82Q79.35 12.87 78.99 12.87L78.99 12.87L78.99 12.87Q78.72 12.87 78.59 12.78L78.59 12.78L78.59 12.78Q78.46 12.70 78.46 12.56L78.46 12.56L78.46 12.56Q78.46 12.31 78.80 12.03L78.80 12.03L78.80 12.03Q79.14 11.75 79.49 11.75L79.49 11.75L79.49 11.75Q79.69 11.75 79.77 11.73L79.77 11.73L79.77 11.73Q79.93 8.72 80.25 5.95L80.25 5.95L80.25 5.95Q80.15 5.89 80.15 5.77L80.15 5.77L80.15 5.77Q80.15 5.60 80.33 5.38L80.33 5.38L80.33 5.38Q80.33 5.29 80.36 5.10L80.36 5.10L80.36 5.10Q80.40 4.80 80.81 4.59L80.81 4.59L80.81 4.59Q81.21 4.37 81.59 4.37L81.59 4.37L81.59 4.37Q81.83 4.37 81.96 4.47L81.96 4.47L81.96 4.47Q82.10 4.56 82.07 4.76L82.07 4.76L82.07 4.82ZM92.20 11.14L92.20 11.14Q92.41 11.21 92.41 11.40L92.41 11.40L92.41 11.40Q92.41 11.62 92.15 11.89L92.15 11.89L92.15 11.89Q91.85 12.18 91.39 12.18L91.39 12.18L91.39 12.18Q91.17 12.18 91.01 12.12L91.01 12.12L91.01 12.12Q90.27 11.89 89.67 11.89L89.67 11.89L89.67 11.89Q88.62 11.89 87.53 12.56L87.53 12.56L87.53 12.56Q87.35 12.68 87.09 12.76L87.09 12.76L87.09 12.76Q86.83 12.84 86.60 12.84L86.60 12.84L86.60 12.84Q86.39 12.84 86.27 12.76L86.27 12.76L86.27 12.76Q86.14 12.68 86.14 12.52L86.14 12.52L86.14 12.52Q86.14 12.42 86.17 12.35L86.17 12.35L86.17 12.35Q86.58 11.21 86.82 10.30L86.82 10.30L86.82 10.30Q87.07 9.39 87.15 8.46L87.15 8.46L87.15 8.46Q87.28 7.20 87.28 6.61L87.28 6.61L87.28 6.61Q87.28 5.05 86.67 4.23L86.67 4.23L86.67 4.23Q86.60 4.14 86.60 4.00L86.60 4.00L86.60 4.00Q86.60 3.72 87.00 3.48L87.00 3.48L87.00 3.48Q87.39 3.23 87.77 3.23L87.77 3.23L87.77 3.23Q88.02 3.23 88.13 3.35L88.13 3.35L88.13 3.35Q88.31 3.42 88.37 3.57L88.37 3.57L88.37 3.57Q88.72 4.49 89.33 5.13L89.33 5.13L89.33 5.13Q89.95 5.77 90.79 5.77L90.79 5.77L90.79 5.77Q90.94 5.77 91.25 5.71L91.25 5.71L91.25 5.71Q91.45 5.68 91.50 5.68L91.50 5.68L91.50 5.68Q91.74 5.68 91.86 5.79L91.86 5.79L91.86 5.79Q91.98 5.89 91.98 6.08L91.98 6.08L91.98 6.08Q91.98 6.27 91.82 6.47L91.82 6.47L91.82 6.47Q91.66 6.66 91.39 6.75L91.39 6.75L91.39 6.75Q90.82 6.94 90.24 6.94L90.24 6.94L90.24 6.94Q89.56 6.94 88.93 6.66L88.93 6.66L88.93 6.66Q88.90 7.45 88.86 7.84L88.86 7.84L88.76 8.72L88.76 8.72Q89.31 8.62 89.85 8.55L89.85 8.55L90.05 8.54L90.05 8.54Q90.61 8.54 90.61 8.92L90.61 8.92L90.61 8.92Q90.61 9.17 90.33 9.37L90.33 9.37L90.33 9.37Q90.05 9.56 89.75 9.62L89.75 9.62L89.75 9.62Q89.32 9.70 88.56 9.80L88.56 9.80L88.56 9.80Q88.41 10.49 88.23 11.09L88.23 11.09L88.23 11.09Q89.15 10.75 90.10 10.75L90.10 10.75L90.10 10.75Q91.15 10.75 92.20 11.14L92.20 11.14ZM95.21 7.98L95.62 7.64L95.62 7.64Q96.17 7.21 96.51 6.87L96.51 6.87L96.51 6.87Q96.85 6.54 97.03 6.20L97.03 6.20L97.03 6.20Q96.28 6.01 94.79 5.56L94.79 5.56L94.72 8.40L94.72 8.40Q95.14 8.05 95.21 7.98L95.21 7.98ZM97.87 9.60L97.87 9.60Q97.99 9.38 98.35 9.22L98.35 9.22L98.35 9.22Q98.71 9.06 99.05 9.06L99.05 9.06L99.05 9.06Q99.51 9.06 99.51 9.35L99.51 9.35L99.51 9.35Q99.51 9.44 99.47 9.55L99.47 9.55L99.47 9.55Q98.90 10.89 98.60 12.15L98.60 12.15L98.60 12.15Q98.53 12.43 98.20 12.67L98.20 12.67L98.20 12.67Q98.06 12.85 97.77 12.98L97.77 12.98L97.77 12.98Q97.48 13.10 97.20 13.10L97.20 13.10L97.20 13.10Q96.96 13.10 96.82 13.01L96.82 13.01L96.82 13.01Q96.67 12.91 96.66 12.70L96.66 12.70L96.66 12.70Q96.60 11.79 96.06 11.03L96.06 11.03L96.06 11.03Q95.52 10.28 94.68 10.05L94.68 10.05L94.61 12.08L94.61 12.08Q94.60 12.35 94.17 12.57L94.17 12.57L94.17 12.57Q93.74 12.80 93.35 12.80L93.35 12.80L93.35 12.80Q93.14 12.80 93.02 12.72L93.02 12.72L93.02 12.72Q92.89 12.64 92.89 12.47L92.89 12.47L92.93 10.54L92.93 10.54Q92.75 10.42 92.75 10.25L92.75 10.25L92.75 10.25Q92.75 10.05 92.96 9.87L92.96 9.87L92.96 9.87Q93.03 7.32 93.13 4.79L93.13 4.79L93.13 4.79Q93.14 4.49 93.53 4.28L93.53 4.28L93.53 4.28Q93.91 4.06 94.30 4.06L94.30 4.06L94.30 4.06Q94.60 4.06 94.72 4.20L94.72 4.20L94.72 4.20Q96.25 4.62 97.89 5.12L97.89 5.12L97.89 5.12Q98.14 5.07 98.24 5.07L98.24 5.07L98.24 5.07Q98.48 5.07 98.61 5.17L98.61 5.17L98.61 5.17Q98.74 5.28 98.74 5.49L98.74 5.49L98.74 5.49Q98.74 6.06 98.36 6.54L98.36 6.54L98.36 6.54Q97.99 7.03 97.31 7.62L97.31 7.62L97.03 7.87L97.03 7.87Q96.36 8.53 95.73 9.03L95.73 9.03L95.73 9.03Q96.88 9.35 97.58 10.30L97.58 10.30L97.58 10.30Q97.64 10.16 97.87 9.60L97.87 9.60Z"></path></g> <!----> <g data-v-5f19e91b="" id="d321b28e-3065-1a3f-6ec7-7538923d3c8c" transform="matrix(0.9894753829783272,0,0,0.9894753829783272,-12.830732838688093,-3.955554546814078)" stroke="none" fill="black"><path d="M71.683,64.62c-8.67-2.064-4.317-11.069-4.317-11.069c-4.972-7.717,3.509-9.701,3.509-9.701  c-0.933-7.957,6.605-7.019,6.605-7.019c4.642-5.066,8.877,0,8.877,0l-0.268-0.407c0.946-0.395-12.268-26.439-33.912-18.051  c-0.161,0.062-0.317,0.114-0.473,0.166c-6.812-7.239,5.903-11.72,5.903-11.72l-2.226-2.596c-8.933,2.808-8.942,10.158-8.079,14.47  c-3.499-0.885-6.551-3.47-15.048,0.609c0,0-23.172,10.033-17.804,43.162c4.821,29.747,44.082,43.555,62.953,22.771  c0,0,7.417-7.863,8.952-14.889C74.985,78.656,71.683,64.62,71.683,64.62z"></path></g></svg>